<?xml version="1.0" encoding="UTF-8"?>
<svg version="1.1" xmlns="http://www.w3.org/2000/svg" width="500" height="500">
<path d="M0 0 C5.97870731 3.98914006 10.8712051 8.75472012 15.8125 13.9375 C25.73097472 24.09149664 36.07594561 31.85009954 50.5625 33.375 C61.09415483 33.10043172 69.24946181 26.58376799 77.18823242 20.39038086 C86.1721651 13.42074389 94.45142691 9.07060664 106 10 C114.75559072 11.87506299 121.86829941 17.87263807 127 25 C141.99037586 48.2378689 139.43132016 87.90911778 134.03515625 113.92578125 C131.76886193 123.77411222 128.38184312 137.61815688 121 145 C120.81813787 147.12780587 120.69923195 149.26102706 120.60546875 151.39453125 C120.53968397 152.74662844 120.47291206 154.09867788 120.40527344 155.45068359 C120.37042847 156.16278992 120.3355835 156.87489624 120.29968262 157.60858154 C118.71085089 188.8224688 111.79165824 222.4536405 91 247 C90.56300781 247.58136719 90.12601563 248.16273438 89.67578125 248.76171875 C87.99094476 250.8047929 86.58919165 251.90667384 83.953125 252.32421875 C81.75 252.375 81.75 252.375 78 252 C76.4715897 250.4715897 76.8142895 249.09202714 76.78442383 246.96582031 C76.84387926 242.13138427 77.88827012 238.09186642 79.44921875 233.546875 C79.70239868 232.77221893 79.95557861 231.99756287 80.21643066 231.19943237 C80.75377147 229.55693433 81.29651456 227.91619493 81.84432983 226.27716064 C83.26106959 222.03088971 84.63173545 217.76990882 86 213.5078125 C86.26709274 212.67724335 86.53418549 211.84667419 86.80937195 210.99093628 C88.85008597 204.59274384 90.66818973 198.16877678 92.1875 191.625 C92.46243286 190.44502441 92.46243286 190.44502441 92.74291992 189.24121094 C96.3850009 172.79075005 95.1808869 157.35884692 92 141 C68.92024367 153.46906316 62.20664849 185.27039214 55.1875 208.5 C54.6462146 210.33328857 54.6462146 210.33328857 54.09399414 212.20361328 C52.21814733 218.47735135 50.3523869 224.35098813 47 230 C44.25 231 44.25 231 42 231 C38.94425652 227.5184562 37.29060001 224.65354814 36.0234375 220.20703125 C35.69311523 219.06186035 35.36279297 217.91668945 35.02246094 216.73681641 C33.00530129 209.36464698 31.00821749 201.98756951 29.078125 194.59204102 C25.51224794 180.96370464 21.56040407 167.30647313 14.1875 155.1875 C10.08234375 148.24703125 10.08234375 148.24703125 9 145 C8.34 145 7.68 145 7 145 C5.33333333 143.33333333 3.66666667 141.66666667 2 140 C0.68716693 139.29381904 -0.64330148 138.61773081 -2 138 C-8.99392832 165.2263638 -0.58255241 193.69660536 6.41133118 219.99040222 C7.89098792 225.55967196 9.32419541 231.13580811 10.625 236.75 C10.92664063 238.02359375 11.22828125 239.2971875 11.5390625 240.609375 C12.04488532 244.33017337 11.76449109 247.33412708 11 251 C10 252 10 252 7.3125 252.375 C3.06438942 251.89408182 0.89422728 249.95949628 -2 247 C-3.59320823 244.72600599 -4.93992601 242.60932121 -6.25 240.1875 C-6.62423096 239.5066333 -6.99846191 238.8257666 -7.3840332 238.12426758 C-21.71546642 211.23988377 -33.4385886 178.57097308 -31.68017578 147.68530273 C-31.2582495 138.95352962 -32.16471209 133.0947472 -36.72167969 125.64453125 C-44.69141761 112.57892747 -47.21719959 96.99043932 -49 82 C-49.13148438 80.90042969 -49.26296875 79.80085938 -49.3984375 78.66796875 C-51.43378582 58.12195263 -52.26904338 26.86833834 -40 9 C-39.55398437 8.31679687 -39.10796875 7.63359375 -38.6484375 6.9296875 C-29.48349563 -5.30528416 -12.74204595 -7.33687421 0 0 Z M-18 22 C-25.69603077 33.65398945 -25.54032587 48.46419998 -25.4375 61.9375 C-25.43545563 62.74416107 -25.43341125 63.55082214 -25.43130493 64.38192749 C-25.36400909 80.72794535 -24.14485762 96.69948061 -18 112 C-17.28328125 111.84144531 -16.5665625 111.68289062 -15.828125 111.51953125 C-4.51408775 109.44112385 3.00897218 112.19289099 12.375 118.375 C29.1160734 131.06543606 36.52095807 151.11541914 44 170 C46.03803588 166.94294618 47.20717459 164.09705082 48.5625 160.6875 C52.31158361 151.62194624 57.36813468 143.1724729 63.77734375 135.71875 C66.21097829 133.32720942 66.21097829 133.32720942 66 131 C66.8353125 130.62875 66.8353125 130.62875 67.6875 130.25 C70.0791545 129.05438433 70.0791545 129.05438433 72.1875 127.1875 C81.43195118 119.99737131 89.35911515 118.13235641 101 119 C104.6875 120.5 104.6875 120.5 107 122 C107.66 122 108.32 122 109 122 C109.63478292 119.62726772 110.25769245 117.25229076 110.875 114.875 C111.04902344 114.22917969 111.22304688 113.58335937 111.40234375 112.91796875 C114.35866245 101.42117379 115.31539764 89.93562306 115.20581055 78.09594727 C115.18754134 76.06709085 115.18530222 74.03869603 115.18554688 72.00976562 C115.16921852 65.28704659 115.0114152 58.56899075 114.66015625 51.85546875 C114.60093994 50.6749292 114.54172363 49.49438965 114.48071289 48.27807617 C113.72042642 43.0935325 111.50206699 38.87396791 108 35 C104.93904581 32.84776659 103.52886345 32.0203409 99.75 31.875 C95.43013684 33.17095895 93.07839918 35.05734906 89.64453125 37.89453125 C75.42863006 49.21265642 62.32813447 54.63169727 44 53 C28.62341406 50.64350006 18.11881789 42.50252567 7.484375 31.48828125 C5.47024394 29.46884984 3.23670817 27.76582224 1 26 C0.175 25.13375 -0.65 24.2675 -1.5 23.375 C-6.93347042 18.2132031 -11.7596413 17.92466371 -18 22 Z " fill="#135497" transform="translate(207,122)"/>
<path d="M0 0 C4.78199934 0.4808226 7.18654112 2.51371557 10.8125 5.5625 C15.70402765 9.51052406 20.68577035 12.6955623 26.3125 15.5 C26.95743408 15.82556885 27.60236816 16.1511377 28.2668457 16.48657227 C39.14646049 21.72810045 48.85171635 22.26092647 60.30859375 18.5546875 C65.62946154 16.48847335 70.45808579 13.40173475 75.26367188 10.35400391 C76.29524414 9.7069751 76.29524414 9.7069751 77.34765625 9.046875 C77.95617432 8.65338867 78.56469238 8.25990234 79.19165039 7.85449219 C81 7 81 7 85 7 C83.76075176 17.58008183 76.08361339 26.46487099 68 33 C57.38818273 39.5231465 46.19626831 40.41850936 34.01171875 38.5390625 C19.66699968 34.64974473 7.97358006 23.99605618 0.2421875 11.640625 C-1.14892215 8.68342336 -1.77733639 6.2597953 -2 3 C-1.34 2.01 -0.68 1.02 0 0 Z " fill="#30508B" transform="translate(211,174)"/>
<path d="M0 0 C0.66 0 1.32 0 2 0 C2.33 1.98 2.66 3.96 3 6 C3.66 6 4.32 6 5 6 C5.33 7.32 5.66 8.64 6 10 C6.78375 10.061875 7.5675 10.12375 8.375 10.1875 C9.24125 10.455625 10.1075 10.72375 11 11 C12.1875 13.5 12.1875 13.5 13 16 C13.66 16.33 14.32 16.66 15 17 C15 18.32 15 19.64 15 21 C15.58652344 21.103125 16.17304688 21.20625 16.77734375 21.3125 C19.34728258 22.10741957 20.60423618 23.17754419 22.5625 25 C24.84887208 27.11833137 25.96753059 27.98917686 29 29 C29 29.66 29 30.32 29 31 C22.30802835 31.6255107 18.95720561 28.56514304 13.984375 24.57421875 C7.67562457 19.13250863 2.56879056 14.36688299 1 6 C0.67 5.67 0.34 5.34 0 5 C-0.04063832 3.33382885 -0.042721 1.66611905 0 0 Z " fill="#1C528F" transform="translate(211,177)"/>
<path d="M0 0 C0.33 0 0.66 0 1 0 C0.9278125 0.63421875 0.855625 1.2684375 0.78125 1.921875 C-1.61038137 25.97105712 1.06135728 48.85041214 7.58862305 72.05908203 C8 74 8 74 8 78 C7.34 78 6.68 78 6 78 C5.79503906 77.02417969 5.59007812 76.04835938 5.37890625 75.04296875 C4.97478516 73.13451172 4.97478516 73.13451172 4.5625 71.1875 C4.29566406 69.92292969 4.02882812 68.65835938 3.75390625 67.35546875 C3.06572114 64.02954587 3.06572114 64.02954587 2 61 C2 60.01 2 59.02 2 58 C1.0409375 57.8453125 1.0409375 57.8453125 0.0625 57.6875 C-0.618125 57.460625 -1.29875 57.23375 -2 57 C-2.495 55.515 -2.495 55.515 -3 54 C-2.34 53.34 -1.68 52.68 -1 52 C-0.81754326 48.77659767 -0.81544791 45.85120496 -1.5012207 42.68823242 C-2.43890329 37.63447668 -2.18591919 32.48055943 -2.18530273 27.35473633 C-2.18747484 25.33588105 -2.20561801 23.31758592 -2.22460938 21.29882812 C-2.23554808 13.95166433 -1.86148174 7.12425447 0 0 Z " fill="#1E5388" transform="translate(203,259)"/>
<path d="M0 0 C0.33 0 0.66 0 1 0 C1.01981934 0.96188232 1.03963867 1.92376465 1.06005859 2.91479492 C1.13720843 6.54750996 1.22573772 10.17988005 1.31738281 13.81225586 C1.35522798 15.372407 1.39015042 16.93263232 1.421875 18.49291992 C1.60154853 27.22673784 2.01372395 35.67335242 3.58447266 44.29418945 C3.98643503 46.91166831 4.07404431 49.35697925 4 52 C2.0549 49.08235 1.54723683 47.37462715 1 44 C0.34 44 -0.32 44 -1 44 C-0.67 29.48 -0.34 14.96 0 0 Z " fill="#1D5285" transform="translate(181,169)"/>
<path d="M0 0 C0 0.66 0 1.32 0 2 C-0.99 2 -1.98 2 -3 2 C-3 3.98 -3 5.96 -3 8 C-4.98 8 -6.96 8 -9 8 C-9 7.34 -9 6.68 -9 6 C-13.62 6 -18.24 6 -23 6 C-23.33 5.34 -23.66 4.68 -24 4 C-22.87464844 4.06960937 -22.87464844 4.06960937 -21.7265625 4.140625 C-15.01214153 4.37740559 -10.0655967 3.71988972 -3.9609375 0.875 C-2 0 -2 0 0 0 Z " fill="#1D558E" transform="translate(274,151)"/>
<path d="M0 0 C0.33 1.32 0.66 2.64 1 4 C0.01 4.495 0.01 4.495 -1 5 C-1.144375 5.639375 -1.28875 6.27875 -1.4375 6.9375 C-2 9 -2 9 -5 11 C-6.22196109 13.17610667 -6.22196109 13.17610667 -7.1875 15.625 C-7.53167969 16.44226563 -7.87585938 17.25953125 -8.23046875 18.1015625 C-8.48441406 18.72804688 -8.73835938 19.35453125 -9 20 C-9.66 20 -10.32 20 -11 20 C-11 21.32 -11 22.64 -11 24 C-11.66 24 -12.32 24 -13 24 C-10.84122786 15.65274774 -6.19882982 6.19882982 0 0 Z " fill="#22528A" transform="translate(268,260)"/>
<path d="M0 0 C1.32 0 2.64 0 4 0 C2.39306847 5.08050068 0.42353736 9.96184129 -1.625 14.875 C-1.94984375 15.65875 -2.2746875 16.4425 -2.609375 17.25 C-3.40440762 19.16743162 -4.20194851 21.0838229 -5 23 C-5.33 23 -5.66 23 -6 23 C-6.2846391 18.0662556 -6.14832529 15.77799034 -3 12 C-2.28566879 9.35065178 -2.28566879 9.35065178 -2 7 C-1.34 7 -0.68 7 0 7 C0 4.69 0 2.38 0 0 Z " fill="#1F5389" transform="translate(275,283)"/>
<path d="M0 0 C1.75848714 5.27546142 -1.69468971 10.17648798 -4 15 C-5.56194046 17.76602393 -7.22436519 20.36191399 -9 23 C-9.33 21.68 -9.66 20.36 -10 19 C-9.34 19 -8.68 19 -8 19 C-7.70996094 17.95199219 -7.70996094 17.95199219 -7.4140625 16.8828125 C-7.15367187 15.97273438 -6.89328125 15.06265625 -6.625 14.125 C-6.36976563 13.22007812 -6.11453125 12.31515625 -5.8515625 11.3828125 C-5 9 -5 9 -3 7 C-2.30899447 5.00827818 -1.64097297 3.00838196 -1 1 C-0.67 0.67 -0.34 0.34 0 0 Z " fill="#205285" transform="translate(337,244)"/>
<path d="M0 0 C0.66 1.32 1.32 2.64 2 4 C3.65 4 5.3 4 7 4 C6.42415568 6.38564077 5.77772405 8.66682784 5 11 C5.09406754 13.29453495 5.09406754 13.29453495 5.4375 15.6875 C5.59025391 16.89986328 5.59025391 16.89986328 5.74609375 18.13671875 C5.82988281 18.75160156 5.91367188 19.36648438 6 20 C4.14723653 16.60326697 3.00950804 13.13095396 1.875 9.4375 C1.52179688 8.30183594 1.16859375 7.16617187 0.8046875 5.99609375 C0 3 0 3 0 0 Z " fill="#1D5189" transform="translate(231,296)"/>
<path d="M0 0 C0.99 0.495 0.99 0.495 2 1 C3.33877997 0.68926365 4.67137358 0.35162582 6 0 C13.44819068 -0.71549548 19.5731306 -0.00340407 26 4 C27.75 5.63671875 27.75 5.63671875 29 7 C28.29875 6.71125 27.5975 6.4225 26.875 6.125 C24.87435511 5.34213896 22.8506134 4.61687113 20.8125 3.9375 C18 3 18 3 16 2 C10.28725709 1.49969869 5.40353883 2.16049742 0 4 C0 2.68 0 1.36 0 0 Z " fill="#235486" transform="translate(188,232)"/>
<path d="M0 0 C0.66 0 1.32 0 2 0 C2 1.98 2 3.96 2 6 C2.66 6 3.32 6 4 6 C4.88049485 8.64148456 5.20857825 10.63728278 5.4375 13.375 C5.78936891 16.92829917 6.63838495 19.69322059 8 23 C7.67 23.99 7.34 24.98 7 26 C0 7.94923858 0 7.94923858 0 0 Z " fill="#204D7F" transform="translate(239,324)"/>
<path d="M0 0 C-0.99 0.33 -1.98 0.66 -3 1 C-3.33 1.99 -3.66 2.98 -4 4 C-10.27 4 -16.54 4 -23 4 C-23 3.01 -23 2.02 -23 1 C-22.154375 1.02320313 -21.30875 1.04640625 -20.4375 1.0703125 C-15.34704639 1.15129699 -4.01831044 -2.00915522 0 0 Z " fill="#384D7E" transform="translate(272,194)"/>
<path d="M0 0 C1.85625 0.061875 1.85625 0.061875 3.75 0.125 C0.03636194 3.83863806 -4.82178117 4.23895609 -9.87109375 4.3203125 C-11.47668007 4.30720567 -13.08221245 4.28363213 -14.6875 4.25 C-15.51443359 4.24097656 -16.34136719 4.23195312 -17.19335938 4.22265625 C-19.21236708 4.19931512 -21.23122356 4.16345288 -23.25 4.125 C-23.25 3.795 -23.25 3.465 -23.25 3.125 C-22.21359375 3.07601562 -21.1771875 3.02703125 -20.109375 2.9765625 C-18.73955792 2.90150403 -17.36976752 2.82595753 -16 2.75 C-15.31808594 2.7190625 -14.63617188 2.688125 -13.93359375 2.65625 C-8.87316669 2.36146784 -4.95301331 -0.16510044 0 0 Z " fill="#205289" transform="translate(274.25,171.875)"/>
<path d="M0 0 C0 0.66 0 1.32 0 2 C0.99 2.33 1.98 2.66 3 3 C2.67 4.32 2.34 5.64 2 7 C0.68 7.33 -0.64 7.66 -2 8 C-2.12375 7.360625 -2.2475 6.72125 -2.375 6.0625 C-2.684375 5.0415625 -2.684375 5.0415625 -3 4 C-3.66 3.67 -4.32 3.34 -5 3 C-2.25 0 -2.25 0 0 0 Z " fill="#2B5191" transform="translate(219,179)"/>
<path d="M0 0 C5.07525299 0.44922202 7.99702108 2.97013303 11.8125 6.0625 C12.40998047 6.53494141 13.00746094 7.00738281 13.62304688 7.49414062 C15.08843126 8.65472506 16.54510876 9.82628832 18 11 C17.01 11.495 17.01 11.495 16 12 C14.0546875 11.07421875 14.0546875 11.07421875 11.875 9.6875 C11.15054688 9.23761719 10.42609375 8.78773438 9.6796875 8.32421875 C9.12539062 7.88722656 8.57109375 7.45023438 8 7 C8 6.34 8 5.68 8 5 C7.34 5 6.68 5 6 5 C6 4.34 6 3.68 6 3 C4.02 2.34 2.04 1.68 0 1 C0 0.67 0 0.34 0 0 Z " fill="#33497A" transform="translate(211,174)"/>
<path d="M0 0 C-1.299375 0.5878125 -1.299375 0.5878125 -2.625 1.1875 C-6.25871505 3.13893957 -8.91700883 5.28403159 -12 8 C-12.66 7.67 -13.32 7.34 -14 7 C-14 5 -14 5 -11.8125 2.4375 C-7.86265725 -0.98569705 -4.95164594 -1.65054865 0 0 Z " fill="#1E5287" transform="translate(306,155)"/>
<path d="M0 0 C0 0.66 0 1.32 0 2 C-2.5 4 -2.5 4 -5 6 C-5.89726916 7.04376209 -6.7724455 8.10690661 -7.625 9.1875 C-10 12 -10 12 -13 13 C-11.43638038 9.16202456 -8.97489917 6.8332373 -6 4 C-5.278125 3.236875 -4.55625 2.47375 -3.8125 1.6875 C-2 0 -2 0 0 0 Z " fill="#205389" transform="translate(282,247)"/>
<path d="M0 0 C-0.375 2.9375 -0.375 2.9375 -1 6 C-1.99 6.495 -1.99 6.495 -3 7 C-2.67 5.35 -2.34 3.7 -2 2 C-2.53109375 2.26554688 -3.0621875 2.53109375 -3.609375 2.8046875 C-8.8046875 5.40234375 -8.8046875 5.40234375 -14 8 C-14 7.34 -14 6.68 -14 6 C-11.953125 4.4921875 -11.953125 4.4921875 -9.25 2.875 C-8.36828125 2.33617187 -7.4865625 1.79734375 -6.578125 1.2421875 C-4 0 -4 0 0 0 Z " fill="#334A76" transform="translate(296,181)"/>
<path d="M0 0 C4.59506182 3.55015735 7.76454254 6.47710509 10 12 C9.01 12 8.02 12 7 12 C7 11.34 7 10.68 7 10 C6.34 10 5.68 10 5 10 C4.34 8.35 3.68 6.7 3 5 C2.34 5 1.68 5 1 5 C1 4.34 1 3.68 1 3 C0.34 2.67 -0.32 2.34 -1 2 C-0.67 1.34 -0.34 0.68 0 0 Z " fill="#205184" transform="translate(325,138)"/>
<path d="M0 0 C0.33 0.99 0.66 1.98 1 3 C2.98 2.67 4.96 2.34 7 2 C4.33333333 4.66666667 1.66666667 7.33333333 -1 10 C-2.23076923 4.58461538 -2.23076923 4.58461538 -1.0625 1.625 C-0.5365625 0.820625 -0.5365625 0.820625 0 0 Z " fill="#1B538C" transform="translate(187,139)"/>
<path d="M0 0 C1.39035371 4.17106112 -0.09769194 7.18206859 -1.4375 11.1875 C-1.68048828 11.93708984 -1.92347656 12.68667969 -2.17382812 13.45898438 C-2.77465056 15.30857501 -3.38629678 17.15464327 -4 19 C-4.66 19 -5.32 19 -6 19 C-6.39742136 14.49589123 -5.09041596 11.93963008 -3 8 C-2.31039038 6.00779443 -1.63920943 4.00894394 -1 2 C-0.67 1.34 -0.34 0.68 0 0 Z " fill="#23538A" transform="translate(263,322)"/>
<path d="M0 0 C3.3 0 6.6 0 10 0 C10 1.32 10 2.64 10 4 C9.34 4.66 8.68 5.32 8 6 C6.66402348 5.19185349 5.331275 4.37836819 4 3.5625 C3.2575 3.11003906 2.515 2.65757812 1.75 2.19140625 C1.1725 1.79824219 0.595 1.40507812 0 1 C0 0.67 0 0.34 0 0 Z " fill="#1C538E" transform="translate(204,258)"/>
<path d="M0 0 C0.66 0 1.32 0 2 0 C2.33 1.98 2.66 3.96 3 6 C3.66 6 4.32 6 5 6 C5.33 7.65 5.66 9.3 6 11 C5.01 11 4.02 11 3 11 C0.84694043 7.14243493 -0.39253254 4.44870215 0 0 Z " fill="#135499" transform="translate(211,177)"/>
<path d="M0 0 C3.3 0 6.6 0 10 0 C12.125 4.625 12.125 4.625 11 8 C10.29875 7.21625 9.5975 6.4325 8.875 5.625 C5.90842914 2.91639182 3.8417484 1.98277285 0 1 C0 0.67 0 0.34 0 0 Z " fill="#1F528A" transform="translate(306,153)"/>
<path d="M0 0 C0.33 0 0.66 0 1 0 C1 3.3 1 6.6 1 10 C-6.63076923 8.52307692 -6.63076923 8.52307692 -8.5 5.875 C-8.665 5.25625 -8.83 4.6375 -9 4 C-3.25 5.875 -3.25 5.875 -1 7 C-0.67 4.69 -0.34 2.38 0 0 Z " fill="#235185" transform="translate(317,237)"/>
<path d="M0 0 C0 0.99 0 1.98 0 3 C0.33 3.99 0.66 4.98 1 6 C0.236875 5.690625 -0.52625 5.38125 -1.3125 5.0625 C-3.18789677 4.32106407 -5.08684652 3.63771783 -7 3 C-6.67 2.01 -6.34 1.02 -6 0 C-3.42525708 -0.99667468 -2.51072708 -1.25536354 0 0 Z " fill="#1C528A" transform="translate(205,139)"/>
<path d="M0 0 C1.32 0.33 2.64 0.66 4 1 C2.54550599 2.0055761 1.08627557 3.00430435 -0.375 4 C-1.59316406 4.8353125 -1.59316406 4.8353125 -2.8359375 5.6875 C-5 7 -5 7 -7 7 C-7 6.34 -7 5.68 -7 5 C-6.01 5 -5.02 5 -4 5 C-3.67 3.68 -3.34 2.36 -3 1 C-2.34 1.33 -1.68 1.66 -1 2 C-0.67 1.34 -0.34 0.68 0 0 Z " fill="#1B508C" transform="translate(287,164)"/>
<path d="M0 0 C0.66 0.33 1.32 0.66 2 1 C1.67 2.32 1.34 3.64 1 5 C-1.66666667 5 -4.33333333 5 -7 5 C-4.63707344 2.47411298 -3.33537489 1.11179163 0 0 Z " fill="#1D518D" transform="translate(181,120)"/>
<path d="M0 0 C0.66 1.32 1.32 2.64 2 4 C2.66 4 3.32 4 4 4 C4.99 5.98 5.98 7.96 7 10 C3.21282653 8.51218185 1.22592999 6.38011591 -1 3 C-0.67 2.01 -0.34 1.02 0 0 Z " fill="#1E5084" transform="translate(204,363)"/>
<path d="M0 0 C0.66 0.33 1.32 0.66 2 1 C-0.59692816 4.89539223 -2.83425768 5.91712884 -7 8 C-7.66 7.67 -8.32 7.34 -9 7 C-6.03 4.69 -3.06 2.38 0 0 Z " fill="#1D5085" transform="translate(293,136)"/>
<path d="M0 0 C2.12046792 3.53411321 2.53199289 6.94393835 3 11 C1 8 1 8 1 6 C0.01 5.67 -0.98 5.34 -2 5 C-1 2 -1 2 0 0 Z " fill="#1F5089" transform="translate(211,337)"/>
<path d="M0 0 C2.97 0 5.94 0 9 0 C9 0.99 9 1.98 9 3 C6.03 2.67 3.06 2.34 0 2 C0 1.34 0 0.68 0 0 Z " fill="#235292" transform="translate(241,208)"/>
<path d="M0 0 C0.8353125 0.37125 0.8353125 0.37125 1.6875 0.75 C0 2.8125 0 2.8125 -2.3125 4.75 C-5.0625 4.5 -5.0625 4.5 -7.3125 3.75 C-2.88173077 -0.31153846 -2.88173077 -0.31153846 0 0 Z " fill="#2F4C80" transform="translate(290.3125,191.25)"/>
<path d="M0 0 C2.475 0.99 2.475 0.99 5 2 C4.625 3.9375 4.625 3.9375 4 6 C3.01 6.495 3.01 6.495 2 7 C1.87625 6.195625 1.7525 5.39125 1.625 4.5625 C1.315625 3.2940625 1.315625 3.2940625 1 2 C0.34 1.67 -0.32 1.34 -1 1 C-0.67 0.67 -0.34 0.34 0 0 Z " fill="#224B8B" transform="translate(212,175)"/>
<path d="M0 0 C2.6855594 2.6855594 3.06049974 5.37621328 4 9 C3.34 9 2.68 9 2 9 C-0.29013653 5.5647952 -0.17842973 4.014669 0 0 Z " fill="#235583" transform="translate(245,277)"/>
<path d="" fill="#FFFFFF" transform="translate(0,0)"/>
<path d="" fill="#FFFFFF" transform="translate(0,0)"/>
<path d="" fill="#FFFFFF" transform="translate(0,0)"/>
<path d="" fill="#FFFFFF" transform="translate(0,0)"/>
<path d="" fill="#FFFFFF" transform="translate(0,0)"/>
<path d="" fill="#FFFFFF" transform="translate(0,0)"/>
<path d="" fill="#FFFFFF" transform="translate(0,0)"/>
<path d="" fill="#FFFFFF" transform="translate(0,0)"/>
<path d="" fill="#FFFFFF" transform="translate(0,0)"/>
<path d="" fill="#FFFFFF" transform="translate(0,0)"/>
<path d="" fill="#FFFFFF" transform="translate(0,0)"/>
<path d="" fill="#FFFFFF" transform="translate(0,0)"/>
<path d="" fill="#FFFFFF" transform="translate(0,0)"/>
<path d="" fill="#FFFFFF" transform="translate(0,0)"/>
<path d="" fill="#FFFFFF" transform="translate(0,0)"/>
<path d="" fill="#FFFFFF" transform="translate(0,0)"/>
<path d="" fill="#FFFFFF" transform="translate(0,0)"/>
<path d="" fill="#FFFFFF" transform="translate(0,0)"/>
<path d="" fill="#FFFFFF" transform="translate(0,0)"/>
<path d="" fill="#FFFFFF" transform="translate(0,0)"/>
<path d="" fill="#FFFFFF" transform="translate(0,0)"/>
<path d="" fill="#FFFFFF" transform="translate(0,0)"/>
<path d="" fill="#FFFFFF" transform="translate(0,0)"/>
<path d="" fill="#FFFFFF" transform="translate(0,0)"/>
</svg>
